<svg width="256" height="256" viewBox="0 0 256 256" xmlns="http://www.w3.org/2000/svg"><defs><linearGradient id="bg" x1="85%" y1="15%" x2="15%" y2="85%"><stop offset="0%" stop-color="#06B6D4"/><stop offset="100%" stop-color="#38BDF8"/></linearGradient><clipPath id="hex"><polygon points="128,0 239,64 239,192 128,256 17,192 17,64"/></clipPath></defs><g clip-path="url(#hex)"><rect width="256" height="256" fill="url(#bg)" opacity="0.15"/><line x1="91" y1="114" x2="48" y2="105" stroke="#0EA5E9" stroke-width="1.5" opacity="0.3"/><line x1="139" y1="191" x2="91" y2="114" stroke="#0EA5E9" stroke-width="1.5" opacity="0.3"/><line x1="86" y1="166" x2="48" y2="105" stroke="#0EA5E9" stroke-width="1.5" opacity="0.3"/><line x1="86" y1="166" x2="91" y2="114" stroke="#0EA5E9" stroke-width="1.5" opacity="0.3"/><line x1="86" y1="166" x2="139" y2="191" stroke="#0EA5E9" stroke-width="1.5" opacity="0.3"/><line x1="176" y1="227" x2="139" y2="191" stroke="#0EA5E9" stroke-width="1.5" opacity="0.3"/><line x1="176" y1="227" x2="86" y2="166" stroke="#0EA5E9" stroke-width="1.5" opacity="0.3"/><line x1="91" y1="104" x2="48" y2="105" stroke="#0EA5E9" stroke-width="1.5" opacity="0.3"/><line x1="91" y1="104" x2="91" y2="114" stroke="#0EA5E9" stroke-width="1.5" opacity="0.3"/><line x1="91" y1="104" x2="139" y2="191" stroke="#0EA5E9" stroke-width="1.5" opacity="0.3"/><line x1="91" y1="104" x2="86" y2="166" stroke="#0EA5E9" stroke-width="1.5" opacity="0.3"/><line x1="30" y1="77" x2="48" y2="105" stroke="#0EA5E9" stroke-width="1.5" opacity="0.3"/><line x1="30" y1="77" x2="91" y2="114" stroke="#0EA5E9" stroke-width="1.5" opacity="0.3"/><line x1="30" y1="77" x2="86" y2="166" stroke="#0EA5E9" stroke-width="1.5" opacity="0.3"/><line x1="30" y1="77" x2="91" y2="104" stroke="#0EA5E9" stroke-width="1.5" opacity="0.3"/><line x1="145" y1="33" x2="91" y2="114" stroke="#0EA5E9" stroke-width="1.5" opacity="0.3"/><line x1="145" y1="33" x2="91" y2="104" stroke="#0EA5E9" stroke-width="1.5" opacity="0.3"/><circle cx="145" cy="33" r="6" fill="#06B6D4"/><circle cx="30" cy="77" r="6" fill="#0EA5E9"/><circle cx="91" cy="104" r="6" fill="#38BDF8"/><circle cx="176" cy="227" r="6" fill="#06B6D4"/><circle cx="86" cy="166" r="6" fill="#0EA5E9"/><circle cx="139" cy="191" r="6" fill="#38BDF8"/><circle cx="91" cy="114" r="6" fill="#06B6D4"/><circle cx="48" cy="105" r="6" fill="#0EA5E9"/></g></svg>