<svg width="256" height="256" viewBox="0 0 256 256" xmlns="http://www.w3.org/2000/svg"><defs><linearGradient id="bg" x1="85%" y1="15%" x2="15%" y2="85%"><stop offset="0%" stop-color="#F59E0B"/><stop offset="100%" stop-color="#FCD34D"/></linearGradient><clipPath id="hex"><polygon points="128,0 239,64 239,192 128,256 17,192 17,64"/></clipPath></defs><g clip-path="url(#hex)"><rect width="256" height="256" fill="url(#bg)" opacity="0.15"/><path d="M214,74 L116,74 L116,163 L18,163" fill="none" stroke="#F59E0B" stroke-width="2.5" opacity="0.5" stroke-linecap="round"/><circle cx="214" cy="74" r="4" fill="#F59E0B" opacity="0.7"/><circle cx="18" cy="163" r="4" fill="#F59E0B" opacity="0.7"/><path d="M102,183 L110,183 L110,245 L119,245" fill="none" stroke="#FBBF24" stroke-width="2.5" opacity="0.5" stroke-linecap="round"/><circle cx="102" cy="183" r="4" fill="#FBBF24" opacity="0.7"/><circle cx="119" cy="245" r="4" fill="#FBBF24" opacity="0.7"/><path d="M216,86 L211,86 L211,246 L207,246" fill="none" stroke="#FCD34D" stroke-width="2.5" opacity="0.5" stroke-linecap="round"/><circle cx="216" cy="86" r="4" fill="#FCD34D" opacity="0.7"/><circle cx="207" cy="246" r="4" fill="#FCD34D" opacity="0.7"/><path d="M99,72 L157,72 L157,64 L216,64" fill="none" stroke="#F59E0B" stroke-width="2.5" opacity="0.5" stroke-linecap="round"/><circle cx="99" cy="72" r="4" fill="#F59E0B" opacity="0.7"/><circle cx="216" cy="64" r="4" fill="#F59E0B" opacity="0.7"/><path d="M210,115 L182,115 L182,118 L155,118" fill="none" stroke="#FBBF24" stroke-width="2.5" opacity="0.5" stroke-linecap="round"/><circle cx="210" cy="115" r="4" fill="#FBBF24" opacity="0.7"/><circle cx="155" cy="118" r="4" fill="#FBBF24" opacity="0.7"/><path d="M239,5 L188,5 L188,78 L138,78" fill="none" stroke="#FCD34D" stroke-width="2.5" opacity="0.5" stroke-linecap="round"/><circle cx="239" cy="5" r="4" fill="#FCD34D" opacity="0.7"/><circle cx="138" cy="78" r="4" fill="#FCD34D" opacity="0.7"/></g></svg>