<svg width="256" height="256" viewBox="0 0 256 256" xmlns="http://www.w3.org/2000/svg"><defs><linearGradient id="bg" x1="85%" y1="15%" x2="15%" y2="85%"><stop offset="0%" stop-color="#EC4899"/><stop offset="100%" stop-color="#F9A8D4"/></linearGradient><clipPath id="hex"><polygon points="128,0 239,64 239,192 128,256 17,192 17,64"/></clipPath></defs><g clip-path="url(#hex)"><rect width="256" height="256" fill="url(#bg)" opacity="0.15"/><rect x="44" y="16" width="27" height="24" rx="3" fill="#F472B6" opacity="0.4"/><rect x="154" y="16" width="27" height="24" rx="3" fill="#F472B6" opacity="0.4"/><rect x="203" y="16" width="21" height="24" rx="3" fill="#F472B6" opacity="0.4"/><rect x="16" y="54" width="13" height="24" rx="3" fill="#F9A8D4" opacity="0.4"/><rect x="33" y="54" width="29" height="24" rx="3" fill="#EC4899" opacity="0.4"/><rect x="66" y="54" width="21" height="24" rx="3" fill="#F472B6" opacity="0.4"/><rect x="91" y="54" width="29" height="24" rx="3" fill="#F9A8D4" opacity="0.4"/><rect x="124" y="54" width="24" height="24" rx="3" fill="#F472B6" opacity="0.4"/><rect x="189" y="54" width="26" height="24" rx="3" fill="#EC4899" opacity="0.4"/><rect x="16" y="92" width="31" height="24" rx="3" fill="#F472B6" opacity="0.4"/><rect x="51" y="92" width="24" height="24" rx="3" fill="#F472B6" opacity="0.4"/><rect x="79" y="92" width="17" height="24" rx="3" fill="#F9A8D4" opacity="0.4"/><rect x="100" y="92" width="20" height="24" rx="3" fill="#EC4899" opacity="0.4"/><rect x="124" y="92" width="19" height="24" rx="3" fill="#F472B6" opacity="0.4"/><rect x="216" y="92" width="26" height="24" rx="3" fill="#EC4899" opacity="0.4"/><rect x="32" y="130" width="15" height="24" rx="3" fill="#F9A8D4" opacity="0.4"/><rect x="79" y="130" width="29" height="24" rx="3" fill="#F472B6" opacity="0.4"/><rect x="112" y="130" width="16" height="24" rx="3" fill="#EC4899" opacity="0.4"/><rect x="132" y="130" width="20" height="24" rx="3" fill="#F472B6" opacity="0.4"/><rect x="156" y="130" width="27" height="24" rx="3" fill="#F9A8D4" opacity="0.4"/><rect x="187" y="130" width="31" height="24" rx="3" fill="#EC4899" opacity="0.4"/><rect x="16" y="168" width="13" height="24" rx="3" fill="#EC4899" opacity="0.4"/><rect x="80" y="168" width="15" height="24" rx="3" fill="#F9A8D4" opacity="0.4"/><rect x="99" y="168" width="28" height="24" rx="3" fill="#EC4899" opacity="0.4"/><rect x="16" y="206" width="13" height="24" rx="3" fill="#EC4899" opacity="0.4"/><rect x="33" y="206" width="28" height="24" rx="3" fill="#F472B6" opacity="0.4"/><rect x="65" y="206" width="18" height="24" rx="3" fill="#F9A8D4" opacity="0.4"/><rect x="106" y="206" width="31" height="24" rx="3" fill="#F472B6" opacity="0.4"/><rect x="174" y="206" width="31" height="24" rx="3" fill="#F9A8D4" opacity="0.4"/></g></svg>