<svg width="256" height="256" viewBox="0 0 256 256" xmlns="http://www.w3.org/2000/svg"><defs><linearGradient id="bg" x1="85%" y1="15%" x2="15%" y2="85%"><stop offset="0%" stop-color="#14B8A6"/><stop offset="100%" stop-color="#5EEAD4"/></linearGradient><clipPath id="hex"><polygon points="128,0 239,64 239,192 128,256 17,192 17,64"/></clipPath></defs><g clip-path="url(#hex)"><rect width="256" height="256" fill="url(#bg)" opacity="0.15"/><line x1="111" y1="161" x2="84" y2="121" stroke="#2DD4BF" stroke-width="1.5" opacity="0.3"/><line x1="48" y1="186" x2="84" y2="121" stroke="#2DD4BF" stroke-width="1.5" opacity="0.3"/><line x1="48" y1="186" x2="111" y2="161" stroke="#2DD4BF" stroke-width="1.5" opacity="0.3"/><line x1="105" y1="128" x2="84" y2="121" stroke="#2DD4BF" stroke-width="1.5" opacity="0.3"/><line x1="105" y1="128" x2="111" y2="161" stroke="#2DD4BF" stroke-width="1.5" opacity="0.3"/><line x1="105" y1="128" x2="48" y2="186" stroke="#2DD4BF" stroke-width="1.5" opacity="0.3"/><line x1="121" y1="131" x2="84" y2="121" stroke="#2DD4BF" stroke-width="1.5" opacity="0.3"/><line x1="121" y1="131" x2="217" y2="74" stroke="#2DD4BF" stroke-width="1.5" opacity="0.3"/><line x1="121" y1="131" x2="111" y2="161" stroke="#2DD4BF" stroke-width="1.5" opacity="0.3"/><line x1="121" y1="131" x2="48" y2="186" stroke="#2DD4BF" stroke-width="1.5" opacity="0.3"/><line x1="121" y1="131" x2="105" y2="128" stroke="#2DD4BF" stroke-width="1.5" opacity="0.3"/><line x1="29" y1="124" x2="84" y2="121" stroke="#2DD4BF" stroke-width="1.5" opacity="0.3"/><line x1="29" y1="124" x2="111" y2="161" stroke="#2DD4BF" stroke-width="1.5" opacity="0.3"/><line x1="29" y1="124" x2="48" y2="186" stroke="#2DD4BF" stroke-width="1.5" opacity="0.3"/><line x1="29" y1="124" x2="105" y2="128" stroke="#2DD4BF" stroke-width="1.5" opacity="0.3"/><line x1="29" y1="124" x2="121" y2="131" stroke="#2DD4BF" stroke-width="1.5" opacity="0.3"/><line x1="201" y1="227" x2="111" y2="161" stroke="#2DD4BF" stroke-width="1.5" opacity="0.3"/><circle cx="201" cy="227" r="6" fill="#14B8A6"/><circle cx="29" cy="124" r="6" fill="#2DD4BF"/><circle cx="121" cy="131" r="6" fill="#5EEAD4"/><circle cx="105" cy="128" r="6" fill="#14B8A6"/><circle cx="48" cy="186" r="6" fill="#2DD4BF"/><circle cx="111" cy="161" r="6" fill="#5EEAD4"/><circle cx="217" cy="74" r="6" fill="#14B8A6"/><circle cx="84" cy="121" r="6" fill="#2DD4BF"/></g></svg>