<svg width="256" height="256" viewBox="0 0 256 256" xmlns="http://www.w3.org/2000/svg"><defs><linearGradient id="bg" x1="85%" y1="15%" x2="15%" y2="85%"><stop offset="0%" stop-color="#EF4444"/><stop offset="100%" stop-color="#FCA5A5"/></linearGradient><clipPath id="hex"><polygon points="128,0 239,64 239,192 128,256 17,192 17,64"/></clipPath></defs><g clip-path="url(#hex)"><rect width="256" height="256" fill="url(#bg)" opacity="0.15"/><path d="M28,36 L128,20 L228,36" fill="none" stroke="#EF4444" stroke-width="3" opacity="0.3" stroke-linecap="round"/><path d="M28,68 L128,52 L228,68" fill="none" stroke="#F87171" stroke-width="3" opacity="0.4" stroke-linecap="round"/><path d="M28,100 L128,84 L228,100" fill="none" stroke="#FCA5A5" stroke-width="3" opacity="0.5" stroke-linecap="round"/><path d="M28,132 L128,116 L228,132" fill="none" stroke="#EF4444" stroke-width="3" opacity="0.5" stroke-linecap="round"/><path d="M28,164 L128,148 L228,164" fill="none" stroke="#F87171" stroke-width="3" opacity="0.6" stroke-linecap="round"/><path d="M28,196 L128,180 L228,196" fill="none" stroke="#FCA5A5" stroke-width="3" opacity="0.7" stroke-linecap="round"/><path d="M28,228 L128,212 L228,228" fill="none" stroke="#EF4444" stroke-width="3" opacity="0.8" stroke-linecap="round"/></g></svg>