<svg width="256" height="256" viewBox="0 0 256 256" xmlns="http://www.w3.org/2000/svg"><defs><linearGradient id="bg" x1="85%" y1="15%" x2="15%" y2="85%"><stop offset="0%" stop-color="#14B8A6"/><stop offset="100%" stop-color="#5EEAD4"/></linearGradient><clipPath id="hex"><polygon points="128,0 239,64 239,192 128,256 17,192 17,64"/></clipPath></defs><g clip-path="url(#hex)"><rect width="256" height="256" fill="url(#bg)" opacity="0.15"/><line x1="156" y1="203" x2="207" y2="216" stroke="#2DD4BF" stroke-width="1.5" opacity="0.3"/><line x1="87" y1="189" x2="156" y2="203" stroke="#2DD4BF" stroke-width="1.5" opacity="0.3"/><line x1="150" y1="71" x2="54" y2="48" stroke="#2DD4BF" stroke-width="1.5" opacity="0.3"/><line x1="201" y1="41" x2="150" y2="71" stroke="#2DD4BF" stroke-width="1.5" opacity="0.3"/><line x1="191" y1="109" x2="207" y2="216" stroke="#2DD4BF" stroke-width="1.5" opacity="0.3"/><line x1="191" y1="109" x2="156" y2="203" stroke="#2DD4BF" stroke-width="1.5" opacity="0.3"/><line x1="191" y1="109" x2="150" y2="71" stroke="#2DD4BF" stroke-width="1.5" opacity="0.3"/><line x1="191" y1="109" x2="201" y2="41" stroke="#2DD4BF" stroke-width="1.5" opacity="0.3"/><line x1="118" y1="102" x2="54" y2="48" stroke="#2DD4BF" stroke-width="1.5" opacity="0.3"/><line x1="118" y1="102" x2="156" y2="203" stroke="#2DD4BF" stroke-width="1.5" opacity="0.3"/><line x1="118" y1="102" x2="87" y2="189" stroke="#2DD4BF" stroke-width="1.5" opacity="0.3"/><line x1="118" y1="102" x2="150" y2="71" stroke="#2DD4BF" stroke-width="1.5" opacity="0.3"/><line x1="118" y1="102" x2="201" y2="41" stroke="#2DD4BF" stroke-width="1.5" opacity="0.3"/><line x1="118" y1="102" x2="191" y2="109" stroke="#2DD4BF" stroke-width="1.5" opacity="0.3"/><circle cx="118" cy="102" r="6" fill="#14B8A6"/><circle cx="191" cy="109" r="6" fill="#2DD4BF"/><circle cx="201" cy="41" r="6" fill="#5EEAD4"/><circle cx="150" cy="71" r="6" fill="#14B8A6"/><circle cx="87" cy="189" r="6" fill="#2DD4BF"/><circle cx="156" cy="203" r="6" fill="#5EEAD4"/><circle cx="54" cy="48" r="6" fill="#14B8A6"/><circle cx="207" cy="216" r="6" fill="#2DD4BF"/></g></svg>