<svg width="256" height="256" viewBox="0 0 256 256" xmlns="http://www.w3.org/2000/svg"><defs><linearGradient id="bg" x1="85%" y1="15%" x2="15%" y2="85%"><stop offset="0%" stop-color="#F97316"/><stop offset="100%" stop-color="#FDBA74"/></linearGradient><clipPath id="hex"><polygon points="128,0 239,64 239,192 128,256 17,192 17,64"/></clipPath></defs><g clip-path="url(#hex)"><rect width="256" height="256" fill="url(#bg)" opacity="0.15"/><polygon points="223,73 223,183 128,238 33,183 33,73 128,18" fill="none" stroke="#FDBA74" stroke-width="2" opacity="0.9"/><polygon points="204,84 204,172 128,216 52,172 52,84 128,40" fill="none" stroke="#FB923C" stroke-width="2" opacity="0.8"/><polygon points="185,95 185,161 128,194 71,161 71,95 128,62" fill="none" stroke="#F97316" stroke-width="2" opacity="0.7"/><polygon points="166,106 166,150 128,172 90,150 90,106 128,84" fill="none" stroke="#FDBA74" stroke-width="2" opacity="0.5"/><polygon points="147,117 147,139 128,150 109,139 109,117 128,106" fill="none" stroke="#FB923C" stroke-width="2" opacity="0.4"/></g></svg>