<svg width="256" height="256" viewBox="0 0 256 256" xmlns="http://www.w3.org/2000/svg"><defs><linearGradient id="bg" x1="85%" y1="15%" x2="15%" y2="85%"><stop offset="0%" stop-color="#3B82F6"/><stop offset="100%" stop-color="#93C5FD"/></linearGradient><clipPath id="hex"><polygon points="128,0 239,64 239,192 128,256 17,192 17,64"/></clipPath></defs><g clip-path="url(#hex)"><rect width="256" height="256" fill="url(#bg)" opacity="0.15"/><path d="M203,36 L155,36 L155,53 L107,53" fill="none" stroke="#3B82F6" stroke-width="2.5" opacity="0.5" stroke-linecap="round"/><circle cx="203" cy="36" r="4" fill="#3B82F6" opacity="0.7"/><circle cx="107" cy="53" r="4" fill="#3B82F6" opacity="0.7"/><path d="M135,235 L101,235 L101,92 L67,92" fill="none" stroke="#60A5FA" stroke-width="2.5" opacity="0.5" stroke-linecap="round"/><circle cx="135" cy="235" r="4" fill="#60A5FA" opacity="0.7"/><circle cx="67" cy="92" r="4" fill="#60A5FA" opacity="0.7"/><path d="M149,218 L142,218 L142,222 L136,222" fill="none" stroke="#93C5FD" stroke-width="2.5" opacity="0.5" stroke-linecap="round"/><circle cx="149" cy="218" r="4" fill="#93C5FD" opacity="0.7"/><circle cx="136" cy="222" r="4" fill="#93C5FD" opacity="0.7"/><path d="M31,48 L73,48 L73,230 L115,230" fill="none" stroke="#3B82F6" stroke-width="2.5" opacity="0.5" stroke-linecap="round"/><circle cx="31" cy="48" r="4" fill="#3B82F6" opacity="0.7"/><circle cx="115" cy="230" r="4" fill="#3B82F6" opacity="0.7"/><path d="M48,2 L110,2 L110,125 L173,125" fill="none" stroke="#60A5FA" stroke-width="2.5" opacity="0.5" stroke-linecap="round"/><circle cx="48" cy="2" r="4" fill="#60A5FA" opacity="0.7"/><circle cx="173" cy="125" r="4" fill="#60A5FA" opacity="0.7"/><path d="M40,214 L47,214 L47,41 L55,41" fill="none" stroke="#93C5FD" stroke-width="2.5" opacity="0.5" stroke-linecap="round"/><circle cx="40" cy="214" r="4" fill="#93C5FD" opacity="0.7"/><circle cx="55" cy="41" r="4" fill="#93C5FD" opacity="0.7"/></g></svg>