<svg width="256" height="256" viewBox="0 0 256 256" xmlns="http://www.w3.org/2000/svg"><defs><linearGradient id="bg" x1="85%" y1="15%" x2="15%" y2="85%"><stop offset="0%" stop-color="#EC4899"/><stop offset="100%" stop-color="#F9A8D4"/></linearGradient><clipPath id="hex"><polygon points="128,0 239,64 239,192 128,256 17,192 17,64"/></clipPath></defs><g clip-path="url(#hex)"><rect width="256" height="256" fill="url(#bg)" opacity="0.15"/><rect x="16" y="16" width="21" height="24" rx="3" fill="#F472B6" opacity="0.4"/><rect x="70" y="16" width="28" height="24" rx="3" fill="#F9A8D4" opacity="0.4"/><rect x="155" y="16" width="22" height="24" rx="3" fill="#F472B6" opacity="0.4"/><rect x="16" y="54" width="12" height="24" rx="3" fill="#F9A8D4" opacity="0.4"/><rect x="53" y="54" width="30" height="24" rx="3" fill="#EC4899" opacity="0.4"/><rect x="87" y="54" width="16" height="24" rx="3" fill="#F9A8D4" opacity="0.4"/><rect x="128" y="54" width="27" height="24" rx="3" fill="#EC4899" opacity="0.4"/><rect x="159" y="54" width="19" height="24" rx="3" fill="#F472B6" opacity="0.4"/><rect x="182" y="54" width="15" height="24" rx="3" fill="#F472B6" opacity="0.4"/><rect x="82" y="92" width="25" height="24" rx="3" fill="#EC4899" opacity="0.4"/><rect x="111" y="92" width="29" height="24" rx="3" fill="#F9A8D4" opacity="0.4"/><rect x="144" y="92" width="25" height="24" rx="3" fill="#F9A8D4" opacity="0.4"/><rect x="173" y="92" width="20" height="24" rx="3" fill="#F9A8D4" opacity="0.4"/><rect x="197" y="92" width="30" height="24" rx="3" fill="#F472B6" opacity="0.4"/><rect x="40" y="130" width="12" height="24" rx="3" fill="#F472B6" opacity="0.4"/><rect x="108" y="130" width="15" height="24" rx="3" fill="#F472B6" opacity="0.4"/><rect x="153" y="130" width="16" height="24" rx="3" fill="#EC4899" opacity="0.4"/><rect x="173" y="130" width="22" height="24" rx="3" fill="#EC4899" opacity="0.4"/><rect x="16" y="168" width="17" height="24" rx="3" fill="#F9A8D4" opacity="0.4"/><rect x="37" y="168" width="31" height="24" rx="3" fill="#EC4899" opacity="0.4"/><rect x="72" y="168" width="14" height="24" rx="3" fill="#EC4899" opacity="0.4"/><rect x="16" y="206" width="18" height="24" rx="3" fill="#F9A8D4" opacity="0.4"/><rect x="38" y="206" width="17" height="24" rx="3" fill="#F472B6" opacity="0.4"/><rect x="142" y="206" width="31" height="24" rx="3" fill="#F9A8D4" opacity="0.4"/><rect x="177" y="206" width="28" height="24" rx="3" fill="#F472B6" opacity="0.4"/><rect x="209" y="206" width="28" height="24" rx="3" fill="#EC4899" opacity="0.4"/></g></svg>