<svg width="512" height="512" viewBox="0 0 512 512" fill="none" xmlns="http://www.w3.org/2000/svg">
  <rect width="512" height="512" rx="256" fill="#111827"/>
  <g transform="translate(40, 50) scale(0.85)">
    <path d="M288.723 376.848C288.723 376.848 296.877 341.229 303.492 329.83C310.107 318.431 323.018 309.432 334.389 313.232C345.76 317.031 349.522 327.43 349.522 339.429V393.428C349.522 405.427 340.383 415.426 328.697 415.426H206.883C195.198 415.426 186.059 405.427 186.059 393.428V264.851C186.059 252.852 195.198 242.853 206.883 242.853H328.697C340.383 242.853 349.522 232.854 349.522 220.855V166.856C349.522 154.857 340.383 144.858 328.697 144.858H252.175C240.49 144.858 231.351 154.857 231.351 166.856V187.056C231.351 199.055 240.49 209.054 252.175 209.054H296.877C308.562 209.054 317.701 199.055 317.701 187.056V179.456C317.701 176.056 314.931 173.256 311.556 173.256H264.484C252.799 173.256 243.66 183.255 243.66 195.254V283.051C243.66 295.05 234.521 305.049 222.836 305.049H173.75C162.064 305.049 152.925 295.05 152.925 283.051V205.854C152.925 193.855 162.064 183.856 173.75 183.856H206.883C218.568 183.856 227.707 173.857 227.707 161.858V113.859C227.707 101.86 218.568 91.8607 206.883 91.8607H140.617C128.932 91.8607 119.793 101.86 119.793 113.859V299.649C119.793 358.441 169.577 406.426 228.784 406.426H288.723V376.848Z" fill="#F3F4F6"/>
    <path d="M384 180C418.137 194.025 450.5 233.5 456.5 273.5" stroke="#EC4899" stroke-width="20" stroke-linecap="round"/>
    <path d="M409 133C436.333 154.333 464.4 205.4 445 241" stroke="#F9A8D4" stroke-width="16" stroke-linecap="round"/>
    <path d="M374 255C384.5 288.167 400.1 336.5 385 363" stroke="#EC4899" stroke-width="20" stroke-linecap="round"/>
  </g>
</svg>
