<svg width="256" height="256" viewBox="0 0 256 256" xmlns="http://www.w3.org/2000/svg"><defs><linearGradient id="bg" x1="85%" y1="15%" x2="15%" y2="85%"><stop offset="0%" stop-color="#6366f1"/><stop offset="100%" stop-color="#818cf8"/></linearGradient></defs><rect width="256" height="256" rx="32" fill="url(#bg)"/><path d="M128 205c-40 0-65-25-65-55 0-20 10-35 20-45l-8-15c-5-10 0-22 8-28l15 20 30-15 30 15 15-20c8 6 13 18 8 28l-8 15c10 10 20 25 20 45 0 30-25 55-65 55z" fill="white" opacity="0.9"/><circle cx="105" cy="125" r="9" fill="white" opacity="0.5"/><circle cx="151" cy="125" r="9" fill="white" opacity="0.5"/><ellipse cx="128" cy="150" rx="10" ry="7" fill="white" opacity="0.5"/><path d="M120 165q8 6 16 0" fill="none" stroke="white" stroke-width="2" opacity="0.5"/></svg>