<svg width="256" height="256" viewBox="0 0 256 256" xmlns="http://www.w3.org/2000/svg"><defs><linearGradient id="bg" x1="85%" y1="15%" x2="15%" y2="85%"><stop offset="0%" stop-color="#06b6d4"/><stop offset="100%" stop-color="#22d3ee"/></linearGradient></defs><rect width="256" height="256" rx="32" fill="url(#bg)"/><circle cx="128" cy="128" r="12" fill="white" opacity="0.9"/><circle cx="128" cy="128" r="30" fill="none" stroke="white" stroke-width="2.5" opacity="0.7"/><circle cx="128" cy="128" r="50" fill="none" stroke="white" stroke-width="2" opacity="0.55"/><circle cx="128" cy="128" r="70" fill="none" stroke="white" stroke-width="1.5" opacity="0.4"/><ellipse cx="128" cy="128" rx="10" ry="50" fill="white" opacity="0.2" transform="rotate(0 128 128)"/><ellipse cx="128" cy="128" rx="10" ry="50" fill="white" opacity="0.2" transform="rotate(30 128 128)"/><ellipse cx="128" cy="128" rx="10" ry="50" fill="white" opacity="0.2" transform="rotate(60 128 128)"/><ellipse cx="128" cy="128" rx="10" ry="50" fill="white" opacity="0.2" transform="rotate(90 128 128)"/><ellipse cx="128" cy="128" rx="10" ry="50" fill="white" opacity="0.2" transform="rotate(120 128 128)"/><ellipse cx="128" cy="128" rx="10" ry="50" fill="white" opacity="0.2" transform="rotate(150 128 128)"/><circle cx="178" cy="128" r="5" fill="white" opacity="0.6"/><circle cx="163" cy="163" r="5" fill="white" opacity="0.6"/><circle cx="128" cy="178" r="5" fill="white" opacity="0.6"/><circle cx="93" cy="163" r="5" fill="white" opacity="0.6"/><circle cx="78" cy="128" r="5" fill="white" opacity="0.6"/><circle cx="93" cy="93" r="5" fill="white" opacity="0.6"/><circle cx="128" cy="78" r="5" fill="white" opacity="0.6"/><circle cx="163" cy="93" r="5" fill="white" opacity="0.6"/></svg>