<svg width="256" height="256" viewBox="0 0 256 256" xmlns="http://www.w3.org/2000/svg"><defs><linearGradient id="bg" x1="3%" y1="34%" x2="97%" y2="66%"><stop offset="0%" stop-color="#3B82F6"/><stop offset="100%" stop-color="#93C5FD"/></linearGradient></defs><rect width="256" height="256" rx="128" fill="url(#bg)" opacity="0.15"/><circle cx="28" cy="28" r="8" fill="#3B82F6" opacity="0.5"/><circle cx="78" cy="28" r="12" fill="#60A5FA" opacity="0.5"/><circle cx="128" cy="28" r="16" fill="#93C5FD" opacity="0.5"/><circle cx="178" cy="28" r="20" fill="#3B82F6" opacity="0.5"/><circle cx="228" cy="28" r="8" fill="#60A5FA" opacity="0.5"/><circle cx="28" cy="78" r="12" fill="#60A5FA" opacity="0.5"/><circle cx="78" cy="78" r="16" fill="#93C5FD" opacity="0.5"/><circle cx="128" cy="78" r="20" fill="#3B82F6" opacity="0.5"/><circle cx="178" cy="78" r="8" fill="#60A5FA" opacity="0.5"/><circle cx="228" cy="78" r="12" fill="#93C5FD" opacity="0.5"/><circle cx="28" cy="128" r="16" fill="#93C5FD" opacity="0.5"/><circle cx="78" cy="128" r="20" fill="#3B82F6" opacity="0.5"/><circle cx="128" cy="128" r="8" fill="#60A5FA" opacity="0.5"/><circle cx="178" cy="128" r="12" fill="#93C5FD" opacity="0.5"/><circle cx="228" cy="128" r="16" fill="#3B82F6" opacity="0.5"/><circle cx="28" cy="178" r="20" fill="#3B82F6" opacity="0.5"/><circle cx="78" cy="178" r="8" fill="#60A5FA" opacity="0.5"/><circle cx="128" cy="178" r="12" fill="#93C5FD" opacity="0.5"/><circle cx="178" cy="178" r="16" fill="#3B82F6" opacity="0.5"/><circle cx="228" cy="178" r="20" fill="#60A5FA" opacity="0.5"/><circle cx="28" cy="228" r="8" fill="#60A5FA" opacity="0.5"/><circle cx="78" cy="228" r="12" fill="#93C5FD" opacity="0.5"/><circle cx="128" cy="228" r="16" fill="#3B82F6" opacity="0.5"/><circle cx="178" cy="228" r="20" fill="#60A5FA" opacity="0.5"/><circle cx="228" cy="228" r="8" fill="#93C5FD" opacity="0.5"/></svg>